<svg width="100%" height="100%" viewBox="0 0 331 72" fill="none" xmlns="http://www.w3.org/2000/svg">
<g clip-path="url(#clip0_1866_3)">
<path d="M49.1143 69.3782C49.2147 69.8824 48.813 70.2857 48.311 70.2857H0.818741C0.216302 70.2857 -0.185324 69.5798 0.115895 69.0756L20.9 32.8739C21.2013 32.3697 20.7996 31.6639 20.0968 31.6639H2.42524C2.02362 31.6639 1.62199 31.2605 1.52159 30.8571L0.0154888 17.8487C-0.0849177 17.3445 0.316708 16.8403 0.818741 16.8403H47.4074C48.0098 16.8403 48.4114 17.5462 48.1102 18.1513L27.4265 54.3529C27.0248 54.8571 27.4265 55.563 28.1293 55.563H46.7045C47.1061 55.563 47.5078 55.9664 47.5078 56.3697L49.1143 69.3782Z" fill="url(#paint0_linear_1866_3)"/>
<path d="M98.6358 16.8403C99.0375 16.8403 99.4391 17.2437 99.4391 17.7479V69.479C99.4391 69.9832 99.0375 70.2857 98.6358 70.2857H83.6753C83.2736 70.2857 82.872 69.9832 82.872 69.479V68.0672C82.872 67.6639 82.4704 67.4622 82.1692 67.6639C78.4541 70.2857 74.8395 71.1933 71.5261 71.1933C64.096 71.1933 58.4732 66.7563 58.4732 66.6555C57.9712 66.3529 57.5696 65.9496 57.2684 65.6471C51.8464 60.1008 50.9428 55.6639 50.9428 47.7983V17.7479C50.9428 17.2437 51.244 16.8403 51.746 16.8403H67.6102C68.1123 16.8403 68.5139 17.2437 68.5139 17.7479V46.9916C68.5139 49.0084 68.6143 51.2269 69.4176 53.042C69.8192 53.8487 70.3212 54.4538 70.9236 54.958C71.9277 55.7647 73.1326 56.1681 74.8395 56.1681C77.8517 56.1681 80.2615 55.0588 81.0647 53.3445C81.868 51.5294 81.868 49.0084 81.868 46.9916V17.7479C81.868 17.2437 82.2696 16.8403 82.7716 16.8403H98.6358Z" fill="url(#paint1_linear_1866_3)"/>
<path d="M146.371 21.5798C151.792 27.126 152.696 31.563 152.696 39.4286V69.479C152.696 69.9832 152.294 70.2857 151.893 70.2857H136.029C135.527 70.2857 135.125 69.9832 135.125 69.479V40.2353C135.125 38.2185 135.025 36 134.221 34.1849C133.82 33.3782 133.318 32.7731 132.715 32.2689C131.711 31.4622 130.406 31.0588 128.799 31.0588C125.687 31.0588 123.377 32.1681 122.574 33.8824C121.771 35.6975 121.771 38.2185 121.771 40.2353V69.479C121.771 69.9832 121.369 70.2857 120.867 70.2857H105.003C104.501 70.2857 104.2 69.9832 104.2 69.479V17.7479C104.2 17.2437 104.501 16.8403 105.003 16.8403H119.863C120.365 16.8403 120.767 17.2437 120.767 17.7479V19.1597C120.767 19.563 121.068 19.7647 121.369 19.563C133.418 11.1933 145.065 20.4706 145.166 20.5714C145.567 20.874 145.969 21.2773 146.371 21.5798Z" fill="url(#paint2_linear_1866_3)"/>
<path d="M188.081 16.0336C203.644 16.0336 216.295 28.5378 216.295 43.9664C216.295 59.395 203.644 72 188.081 72C183.06 72 178.241 70.6891 174.024 68.2689C173.723 68.1681 173.421 68.3697 173.421 68.6723V69.479C173.421 69.8824 173.02 70.2857 172.518 70.2857H157.658C157.156 70.2857 156.854 69.8824 156.854 69.479V0.907563C156.854 0.403362 157.156 0 157.658 0H172.518C173.02 0 173.421 0.403362 173.421 0.907563V19.3613C173.421 19.6639 173.723 19.8655 174.024 19.6639C178.241 17.2437 183.06 16.0336 188.081 16.0336ZM185.47 56.8739C192.599 56.8739 198.423 51.1261 198.423 43.9664C198.423 36.9076 192.599 31.1597 185.47 31.1597C178.341 31.1597 173.421 36.9076 173.421 43.9664C173.421 51.1261 178.341 56.8739 185.47 56.8739Z" fill="url(#paint3_linear_1866_3)"/>
<path d="M272.534 36.1008C273.338 38.7227 273.639 41.3445 273.639 44.0672C273.639 45.5798 273.538 47.395 273.237 49.0084C273.137 49.4118 272.836 49.7143 272.334 49.7143H235.083C234.48 49.7143 234.079 50.4202 234.38 51.0252C236.689 54.8571 240.806 57.3782 245.324 57.3782C249.14 57.3782 252.754 55.6639 255.264 52.3361C255.465 52.1345 255.767 51.9328 256.168 52.0336L270.426 54.5546C270.928 54.6555 271.229 55.2605 271.028 55.7647C270.727 56.4706 270.325 57.2773 270.024 57.6807L269.823 58.084C269.623 58.4874 269.422 58.8908 269.121 59.2941C268.819 59.7983 268.518 60.2017 268.217 60.605L268.016 60.9076C267.916 61.0084 267.815 61.1092 267.715 61.2101L267.514 61.4118C267.313 61.7143 267.112 61.916 266.912 62.1177L266.811 62.3193C266.41 62.7227 266.108 63.0252 265.807 63.4286L265.606 63.6303C265.406 63.8319 265.205 64.0336 264.903 64.2353V64.3361C264.602 64.5378 264.401 64.8403 264.1 65.042L263.799 65.2437L263.498 64.9412L263.799 65.3445C263.397 65.6471 262.996 65.9496 262.594 66.2521L262.293 66.4538C261.891 66.7563 261.389 67.0588 260.988 67.3613L260.787 67.4622C260.285 67.8656 259.783 68.1681 259.18 68.4706L259.08 68.5714C258.98 68.5714 258.779 68.6723 258.678 68.7731H258.578C258.377 68.874 258.176 68.9748 257.875 69.1765H257.775C257.273 69.479 256.771 69.6807 256.369 69.8824H256.269C255.867 69.9832 255.666 70.084 255.365 70.1849L254.963 70.3866C254.662 70.4874 254.26 70.5882 253.959 70.6891H253.859C253.457 70.8908 253.056 70.9916 252.654 71.0924L252.353 71.1933C251.549 71.395 250.746 71.4958 249.843 71.6975H249.541C248.738 71.7983 247.834 71.8992 247.031 72H246.73C246.228 72 245.826 72 245.425 72C245.023 72 244.621 72 244.119 72C244.019 72 243.919 72 243.818 72H243.718C243.417 71.8992 243.115 71.8992 242.814 71.8992H242.714C242.613 71.8992 242.513 71.8992 242.412 71.7983C241.91 71.7983 241.509 71.7983 241.107 71.6975H240.906C240.505 71.5966 240.203 71.4958 239.902 71.4958L239.501 71.395C239.199 71.2941 238.898 71.2941 238.597 71.1933H238.497C238.396 71.0924 238.296 71.0924 238.195 71.0924C237.794 70.9916 237.392 70.8908 236.99 70.7899C236.589 70.5882 236.187 70.4874 235.786 70.3866C235.786 70.2857 235.685 70.2857 235.585 70.2857L235.484 70.1849C235.183 70.084 234.882 69.9832 234.681 69.8824H234.581C234.48 69.7815 234.38 69.7815 234.28 69.7815C233.878 69.5798 233.577 69.3782 233.175 69.2773C232.773 69.0756 232.472 68.8739 232.071 68.6723C231.97 68.6723 231.87 68.5714 231.769 68.5714V68.4706C231.468 68.3698 231.267 68.2689 230.966 68.0672L230.665 67.8655C230.263 67.6639 229.962 67.4622 229.661 67.2605C226.247 64.9412 223.335 62.0168 221.227 58.4874C221.026 58.2857 220.925 57.9832 220.725 57.6807L220.624 57.479C220.524 57.2773 220.323 56.9748 220.223 56.6723L220.122 56.4706C220.122 56.3697 220.022 56.3697 220.022 56.2689C219.419 55.1597 219.018 53.9496 218.616 52.7395C218.315 52.1345 218.214 51.5294 218.014 51.0252C217.913 50.6218 217.813 50.1176 217.712 49.6134C217.411 48.3025 217.311 46.8908 217.21 45.479C217.21 44.9748 217.21 44.4706 217.21 44.0672C217.21 43.563 217.21 43.0588 217.21 42.5546C217.311 40.1345 217.813 37.6134 218.616 35.2941C218.817 34.4874 219.118 33.7815 219.419 33.1765C219.52 32.7731 219.721 32.3697 219.921 31.9664C219.921 31.9664 220.022 31.8655 220.022 31.7647L220.122 31.563C220.122 31.4622 220.223 31.3613 220.223 31.2605C220.323 31.1597 220.323 31.0588 220.423 31.0588L220.624 30.5546C220.825 30.2521 221.026 29.8487 221.227 29.5462C223.335 26.1176 226.247 23.0924 229.661 20.7731C229.962 20.5714 230.263 20.3697 230.665 20.1681L230.966 19.9664C231.267 19.8655 231.468 19.6639 231.769 19.563V19.4622C231.87 19.4622 231.97 19.3613 232.071 19.3613C232.472 19.1597 232.773 18.958 233.175 18.7563C233.577 18.6555 233.878 18.4538 234.28 18.2521C234.38 18.2521 234.48 18.2521 234.581 18.1513H234.681C234.882 18.0504 235.183 17.9496 235.484 17.8487L235.585 17.7479C235.685 17.7479 235.786 17.7479 235.786 17.6471C236.187 17.5462 236.589 17.4454 236.99 17.2437C237.392 17.1429 237.794 17.042 238.195 16.9412C238.296 16.9412 238.396 16.9412 238.497 16.8403H238.597C238.898 16.7395 239.199 16.7395 239.501 16.6387H239.701C240.103 16.5378 240.706 16.437 241.007 16.3361H241.107C241.509 16.3361 241.91 16.2353 242.412 16.2353C242.513 16.2353 242.613 16.1345 242.714 16.1345H242.814C243.115 16.1345 243.417 16.1345 243.718 16.1345H243.818C243.919 16.0336 244.019 16.0336 244.119 16.0336C244.621 16.0336 245.023 16.0336 245.425 16.0336C245.826 16.0336 246.228 16.0336 246.73 16.0336H247.031C247.834 16.1345 248.738 16.2353 249.541 16.3361L249.943 16.437C250.746 16.5378 251.549 16.6387 252.353 16.8403L252.654 16.9412C253.056 17.042 253.457 17.2437 253.859 17.3445H253.959C254.26 17.4454 254.662 17.5462 254.963 17.6471C255.064 17.7479 255.164 17.7479 255.264 17.8487C255.666 17.9496 255.867 18.0504 256.168 18.1513H256.369C256.771 18.3529 257.273 18.6555 257.775 18.8571H257.875C258.176 19.0588 258.377 19.1597 258.578 19.2605H258.678C258.779 19.3613 258.98 19.4622 259.08 19.563C259.582 19.7647 260.285 20.2689 260.787 20.5714H260.887C261.389 20.874 261.791 21.1765 262.293 21.5798C262.393 21.6807 262.494 21.7815 262.594 21.7815C262.996 22.084 263.397 22.3866 263.799 22.7899L264 22.8908C264.301 23.1933 264.602 23.4958 264.903 23.6975V23.7983C265.205 24 265.406 24.2017 265.606 24.4034L265.807 24.605C266.108 25.0084 266.41 25.3109 266.711 25.7143L266.51 26.0168L266.811 25.7143L266.912 25.916C267.112 26.1176 267.313 26.3193 267.514 26.6218L267.715 26.8235C267.916 27.0252 268.117 27.3277 268.317 27.6303C268.518 27.9328 268.719 28.1345 268.819 28.3361L269.121 28.8403C269.221 29.042 269.422 29.2437 269.522 29.4454L270.024 30.3529C271.129 32.1681 271.932 34.084 272.534 36.1008ZM256.168 37.916C256.67 37.916 257.072 37.4118 257.072 36.9076C256.369 32.9748 251.851 29.9496 246.027 29.9496C240.806 29.9496 235.786 32.9748 235.083 36.9076C234.982 37.4118 235.384 37.916 235.886 37.916H256.168Z" fill="url(#paint4_linear_1866_3)"/>
<path d="M329.896 36.1008C330.699 38.7227 331 41.3445 331 44.0672C331 45.5798 330.9 47.395 330.598 49.0084C330.498 49.4118 330.197 49.7143 329.695 49.7143H292.444C291.841 49.7143 291.44 50.4202 291.741 51.0252C294.05 54.8571 298.167 57.3782 302.685 57.3782C306.501 57.3782 310.115 55.6639 312.626 52.3361C312.826 52.1345 313.128 51.9328 313.529 52.0336L327.787 54.5546C328.289 54.6555 328.59 55.2605 328.389 55.7647C328.088 56.4706 327.687 57.2773 327.385 57.6807L327.185 58.084C326.984 58.4874 326.783 58.8908 326.482 59.2941C326.18 59.7983 325.879 60.2017 325.578 60.605L325.377 60.9076C325.277 61.0084 325.176 61.1092 325.076 61.2101L324.875 61.4118C324.674 61.7143 324.474 61.916 324.273 62.1177L324.172 62.3193C323.771 62.7227 323.47 63.0252 323.168 63.4286L322.967 63.6303C322.767 63.8319 322.566 64.0336 322.265 64.2353V64.3361C321.963 64.5378 321.763 64.8403 321.461 65.042L321.16 65.2437L320.859 64.9412L321.16 65.3445C320.759 65.6471 320.357 65.9496 319.955 66.2521L319.654 66.4538C319.252 66.7563 318.75 67.0588 318.349 67.3613L318.148 67.4622C317.646 67.8656 317.144 68.1681 316.541 68.4706L316.441 68.5714C316.341 68.5714 316.14 68.6723 316.039 68.7731H315.939C315.738 68.874 315.537 68.9748 315.236 69.1765H315.136C314.634 69.479 314.132 69.6807 313.73 69.8824H313.63C313.228 69.9832 313.027 70.084 312.726 70.1849L312.324 70.3866C312.023 70.4874 311.622 70.5882 311.32 70.6891H311.22C310.818 70.8908 310.417 70.9916 310.015 71.0924L309.714 71.1933C308.911 71.395 308.107 71.4958 307.204 71.6975H306.902C306.099 71.7983 305.196 71.8992 304.392 72H304.091C303.589 72 303.187 72 302.786 72C302.384 72 301.983 72 301.48 72C301.38 72 301.28 72 301.179 72H301.079C300.778 71.8992 300.476 71.8992 300.175 71.8992H300.075C299.974 71.8992 299.874 71.8992 299.774 71.7983C299.272 71.7983 298.87 71.7983 298.468 71.6975H298.267C297.866 71.5966 297.565 71.4958 297.263 71.4958L296.862 71.395C296.561 71.2941 296.259 71.2941 295.958 71.1933H295.858C295.757 71.0924 295.657 71.0924 295.556 71.0924C295.155 70.9916 294.753 70.8908 294.352 70.7899C293.95 70.5882 293.548 70.4874 293.147 70.3866C293.147 70.2857 293.046 70.2857 292.946 70.2857L292.846 70.1849C292.544 70.084 292.243 69.9832 292.042 69.8824H291.942C291.841 69.7815 291.741 69.7815 291.641 69.7815C291.239 69.5798 290.938 69.3782 290.536 69.2773C290.135 69.0756 289.833 68.8739 289.432 68.6723C289.331 68.6723 289.231 68.5714 289.13 68.5714V68.4706C288.829 68.3698 288.628 68.2689 288.327 68.0672L288.026 67.8655C287.624 67.6639 287.323 67.4622 287.022 67.2605C283.608 64.9412 280.696 62.0168 278.588 58.4874C278.387 58.2857 278.287 57.9832 278.086 57.6807L277.985 57.479C277.885 57.2773 277.684 56.9748 277.584 56.6723L277.483 56.4706C277.483 56.3697 277.383 56.3697 277.383 56.2689C276.78 55.1597 276.379 53.9496 275.977 52.7395C275.676 52.1345 275.576 51.5294 275.375 51.0252C275.274 50.6218 275.174 50.1176 275.074 49.6134C274.772 48.3025 274.672 46.8908 274.572 45.479C274.572 44.9748 274.572 44.4706 274.572 44.0672C274.572 43.563 274.572 43.0588 274.572 42.5546C274.672 40.1345 275.174 37.6134 275.977 35.2941C276.178 34.4874 276.479 33.7815 276.78 33.1765C276.881 32.7731 277.082 32.3697 277.283 31.9664C277.283 31.9664 277.383 31.8655 277.383 31.7647L277.483 31.563C277.483 31.4622 277.584 31.3613 277.584 31.2605C277.684 31.1597 277.684 31.0588 277.785 31.0588L277.985 30.5546C278.186 30.2521 278.387 29.8487 278.588 29.5462C280.696 26.1176 283.608 23.0924 287.022 20.7731C287.323 20.5714 287.624 20.3697 288.026 20.1681L288.327 19.9664C288.628 19.8655 288.829 19.6639 289.13 19.563V19.4622C289.231 19.4622 289.331 19.3613 289.432 19.3613C289.833 19.1597 290.135 18.958 290.536 18.7563C290.938 18.6555 291.239 18.4538 291.641 18.2521C291.741 18.2521 291.841 18.2521 291.942 18.1513H292.042C292.243 18.0504 292.544 17.9496 292.846 17.8487L292.946 17.7479C293.046 17.7479 293.147 17.7479 293.147 17.6471C293.548 17.5462 293.95 17.4454 294.352 17.2437C294.753 17.1429 295.155 17.042 295.556 16.9412C295.657 16.9412 295.757 16.9412 295.858 16.8403H295.958C296.259 16.7395 296.561 16.7395 296.862 16.6387H297.063C297.464 16.5378 298.067 16.437 298.368 16.3361H298.468C298.87 16.3361 299.272 16.2353 299.774 16.2353C299.874 16.2353 299.974 16.1345 300.075 16.1345H300.175C300.476 16.1345 300.778 16.1345 301.079 16.1345H301.179C301.28 16.0336 301.38 16.0336 301.48 16.0336C301.983 16.0336 302.384 16.0336 302.786 16.0336C303.187 16.0336 303.589 16.0336 304.091 16.0336H304.392C305.196 16.1345 306.099 16.2353 306.902 16.3361L307.304 16.437C308.107 16.5378 308.911 16.6387 309.714 16.8403L310.015 16.9412C310.417 17.042 310.818 17.2437 311.22 17.3445H311.32C311.622 17.4454 312.023 17.5462 312.324 17.6471C312.425 17.7479 312.525 17.7479 312.626 17.8487C313.027 17.9496 313.228 18.0504 313.529 18.1513H313.73C314.132 18.3529 314.634 18.6555 315.136 18.8571H315.236C315.537 19.0588 315.738 19.1597 315.939 19.2605H316.039C316.14 19.3613 316.341 19.4622 316.441 19.563C316.943 19.7647 317.646 20.2689 318.148 20.5714H318.248C318.75 20.874 319.152 21.1765 319.654 21.5798C319.754 21.6807 319.855 21.7815 319.955 21.7815C320.357 22.084 320.759 22.3866 321.16 22.7899L321.361 22.8908C321.662 23.1933 321.963 23.4958 322.265 23.6975V23.7983C322.566 24 322.767 24.2017 322.967 24.4034L323.168 24.605C323.47 25.0084 323.771 25.3109 324.072 25.7143L323.871 26.0168L324.172 25.7143L324.273 25.916C324.474 26.1176 324.674 26.3193 324.875 26.6218L325.076 26.8235C325.277 27.0252 325.478 27.3277 325.678 27.6303C325.879 27.9328 326.08 28.1345 326.18 28.3361L326.482 28.8403C326.582 29.042 326.783 29.2437 326.883 29.4454L327.385 30.3529C328.49 32.1681 329.293 34.084 329.896 36.1008ZM313.529 37.916C314.031 37.916 314.433 37.4118 314.433 36.9076C313.73 32.9748 309.212 29.9496 303.388 29.9496C298.167 29.9496 293.147 32.9748 292.444 36.9076C292.343 37.4118 292.745 37.916 293.247 37.916H313.529Z" fill="url(#paint5_linear_1866_3)"/>
</g>
<defs>
<linearGradient id="paint0_linear_1866_3" x1="0" y1="36" x2="331" y2="36" gradientUnits="userSpaceOnUse">
<stop stop-color="#FFCA42"/>
<stop offset="1" stop-color="#FF8567"/>
</linearGradient>
<linearGradient id="paint1_linear_1866_3" x1="0" y1="36" x2="331" y2="36" gradientUnits="userSpaceOnUse">
<stop stop-color="#FFCA42"/>
<stop offset="1" stop-color="#FF8567"/>
</linearGradient>
<linearGradient id="paint2_linear_1866_3" x1="0" y1="36" x2="331" y2="36" gradientUnits="userSpaceOnUse">
<stop stop-color="#FFCA42"/>
<stop offset="1" stop-color="#FF8567"/>
</linearGradient>
<linearGradient id="paint3_linear_1866_3" x1="0" y1="36" x2="331" y2="36" gradientUnits="userSpaceOnUse">
<stop stop-color="#FFCA42"/>
<stop offset="1" stop-color="#FF8567"/>
</linearGradient>
<linearGradient id="paint4_linear_1866_3" x1="0" y1="36" x2="331" y2="36" gradientUnits="userSpaceOnUse">
<stop stop-color="#FFCA42"/>
<stop offset="1" stop-color="#FF8567"/>
</linearGradient>
<linearGradient id="paint5_linear_1866_3" x1="0" y1="36" x2="331" y2="36" gradientUnits="userSpaceOnUse">
<stop stop-color="#FFCA42"/>
<stop offset="1" stop-color="#FF8567"/>
</linearGradient>
<clipPath id="clip0_1866_3">
<rect width="331" height="72" fill="white"/>
</clipPath>
</defs>
</svg>
